# xmcd
#
# Track frame offsets: 
#        150
#        33428
#        46731
#        61680
#        94922
#        114992
#        124245
#        149357
#        170517
#        182185
#        206325
#        232956
#        242741
#
# Disc length: 3661 seconds
#
# Revision: 1
# Processed by: cddbd v1.5.2PL0 Copyright (c) Steve Scherf et al.
# Submitted via: ExactAudioCopy v1.1
#
DISCID=ac0e4b0d
DTITLE=Douglas Adams - Per Anhalter durch die Galaxis 2 - CD03
DYEAR=2005
DGENRE=Hˆrspiel
TTITLE0=Die Krikkit-Party
TTITLE1=Die Krikkit-Party
TTITLE2=Die Krikkit-Party
TTITLE3=Die Krikkit-Party
TTITLE4=Ist das Universum noch zu retten?
TTITLE5=Ist das Universum noch zu retten?
TTITLE6=Ist das Universum noch zu retten?
TTITLE7=Ist das Universum noch zu retten?
TTITLE8=Ist das Universum noch zu retten?
TTITLE9=Haktars groﬂer Bluff
TTITLE10=Haktars groﬂer Bluff
TTITLE11=Haktars groﬂer Bluff
TTITLE12=Haktars groﬂer Bluff
EXTD=
EXTT0=
EXTT1=
EXTT2=
EXTT3=
EXTT4=
EXTT5=
EXTT6=
EXTT7=
EXTT8=
EXTT9=
EXTT10=
EXTT11=
EXTT12=
PLAYORDER=
